<svg width="186" height="87" viewBox="0 0 186 87" fill="none" xmlns="http://www.w3.org/2000/svg">
<circle cx="182.642" cy="3.3587" r="2.35821" transform="rotate(90 182.642 3.3587)" fill="#0B0B0B" stroke="#0B0B0B" stroke-width="2"/>
<circle cx="182.642" cy="23.2786" r="2.35821" transform="rotate(90 182.642 23.2786)" fill="#0B0B0B" stroke="#0B0B0B" stroke-width="2"/>
<circle cx="182.642" cy="43.199" r="2.35821" transform="rotate(90 182.642 43.199)" fill="#0B0B0B" stroke="#0B0B0B" stroke-width="2"/>
<circle cx="182.642" cy="63.1194" r="2.35821" transform="rotate(90 182.642 63.1194)" fill="#0B0B0B" stroke="#0B0B0B" stroke-width="2"/>
<circle cx="182.642" cy="83.0398" r="2.35821" transform="rotate(90 182.642 83.0398)" fill="#0B0B0B" stroke="#0B0B0B" stroke-width="2"/>
<circle cx="162.722" cy="3.35821" r="2.35821" transform="rotate(90 162.722 3.35821)" fill="#0B0B0B" stroke="#0B0B0B" stroke-width="2"/>
<circle cx="162.722" cy="23.2786" r="2.35821" transform="rotate(90 162.722 23.2786)" fill="#0B0B0B" stroke="#0B0B0B" stroke-width="2"/>
<circle cx="162.722" cy="43.199" r="2.35821" transform="rotate(90 162.722 43.199)" fill="#0B0B0B" stroke="#0B0B0B" stroke-width="2"/>
<circle cx="162.722" cy="63.1194" r="2.35821" transform="rotate(90 162.722 63.1194)" fill="#0B0B0B" stroke="#0B0B0B" stroke-width="2"/>
<circle cx="162.722" cy="83.0398" r="2.35821" transform="rotate(90 162.722 83.0398)" fill="#0B0B0B" stroke="#0B0B0B" stroke-width="2"/>
<circle cx="142.801" cy="3.35821" r="2.35821" transform="rotate(90 142.801 3.35821)" fill="#0B0B0B" stroke="#0B0B0B" stroke-width="2"/>
<circle cx="142.801" cy="23.2786" r="2.35821" transform="rotate(90 142.801 23.2786)" fill="#0B0B0B" stroke="#0B0B0B" stroke-width="2"/>
<circle cx="142.801" cy="43.199" r="2.35821" transform="rotate(90 142.801 43.199)" fill="#0B0B0B" stroke="#0B0B0B" stroke-width="2"/>
<circle cx="142.801" cy="63.1194" r="2.35821" transform="rotate(90 142.801 63.1194)" fill="#0B0B0B" stroke="#0B0B0B" stroke-width="2"/>
<circle cx="142.801" cy="83.0398" r="2.35821" transform="rotate(90 142.801 83.0398)" fill="#0B0B0B" stroke="#0B0B0B" stroke-width="2"/>
<circle cx="122.881" cy="3.35821" r="2.35821" transform="rotate(90 122.881 3.35821)" fill="#0B0B0B" stroke="#0B0B0B" stroke-width="2"/>
<circle cx="122.881" cy="23.2786" r="2.35821" transform="rotate(90 122.881 23.2786)" fill="#0B0B0B" stroke="#0B0B0B" stroke-width="2"/>
<circle cx="122.881" cy="43.199" r="2.35821" transform="rotate(90 122.881 43.199)" fill="#0B0B0B" stroke="#0B0B0B" stroke-width="2"/>
<circle cx="122.881" cy="63.1194" r="2.35821" transform="rotate(90 122.881 63.1194)" fill="#0B0B0B" stroke="#0B0B0B" stroke-width="2"/>
<circle cx="122.881" cy="83.0398" r="2.35821" transform="rotate(90 122.881 83.0398)" fill="#0B0B0B" stroke="#0B0B0B" stroke-width="2"/>
<circle cx="102.96" cy="3.35821" r="2.35821" transform="rotate(90 102.96 3.35821)" fill="#0B0B0B" stroke="#0B0B0B" stroke-width="2"/>
<circle cx="102.96" cy="23.2786" r="2.35821" transform="rotate(90 102.96 23.2786)" fill="#0B0B0B" stroke="#0B0B0B" stroke-width="2"/>
<circle cx="102.96" cy="43.199" r="2.35821" transform="rotate(90 102.96 43.199)" fill="#0B0B0B" stroke="#0B0B0B" stroke-width="2"/>
<circle cx="102.96" cy="63.1194" r="2.35821" transform="rotate(90 102.96 63.1194)" fill="#0B0B0B" stroke="#0B0B0B" stroke-width="2"/>
<circle cx="102.96" cy="83.0398" r="2.35821" transform="rotate(90 102.96 83.0398)" fill="#0B0B0B" stroke="#0B0B0B" stroke-width="2"/>
<circle cx="83.0401" cy="3.35821" r="2.35821" transform="rotate(90 83.0401 3.35821)" fill="#0B0B0B" stroke="#0B0B0B" stroke-width="2"/>
<circle cx="83.0401" cy="23.2786" r="2.35821" transform="rotate(90 83.0401 23.2786)" fill="#0B0B0B" stroke="#0B0B0B" stroke-width="2"/>
<circle cx="83.0401" cy="43.199" r="2.35821" transform="rotate(90 83.0401 43.199)" fill="#0B0B0B" stroke="#0B0B0B" stroke-width="2"/>
<circle cx="83.0401" cy="63.1194" r="2.35821" transform="rotate(90 83.0401 63.1194)" fill="#0B0B0B" stroke="#0B0B0B" stroke-width="2"/>
<circle cx="83.0401" cy="83.0398" r="2.35821" transform="rotate(90 83.0401 83.0398)" fill="#0B0B0B" stroke="#0B0B0B" stroke-width="2"/>
<circle cx="63.1196" cy="3.35821" r="2.35821" transform="rotate(90 63.1196 3.35821)" fill="#0B0B0B" stroke="#0B0B0B" stroke-width="2"/>
<circle cx="63.1196" cy="23.2786" r="2.35821" transform="rotate(90 63.1196 23.2786)" fill="#0B0B0B" stroke="#0B0B0B" stroke-width="2"/>
<circle cx="63.1196" cy="43.199" r="2.35821" transform="rotate(90 63.1196 43.199)" fill="#0B0B0B" stroke="#0B0B0B" stroke-width="2"/>
<circle cx="63.1196" cy="63.1194" r="2.35821" transform="rotate(90 63.1196 63.1194)" fill="#0B0B0B" stroke="#0B0B0B" stroke-width="2"/>
<circle cx="63.1196" cy="83.0398" r="2.35821" transform="rotate(90 63.1196 83.0398)" fill="#0B0B0B" stroke="#0B0B0B" stroke-width="2"/>
<circle cx="43.1993" cy="3.35821" r="2.35821" transform="rotate(90 43.1993 3.35821)" fill="#0B0B0B" stroke="#0B0B0B" stroke-width="2"/>
<circle cx="43.1993" cy="23.2786" r="2.35821" transform="rotate(90 43.1993 23.2786)" fill="#0B0B0B" stroke="#0B0B0B" stroke-width="2"/>
<circle cx="43.1993" cy="43.199" r="2.35821" transform="rotate(90 43.1993 43.199)" fill="#0B0B0B" stroke="#0B0B0B" stroke-width="2"/>
<circle cx="43.1993" cy="63.1194" r="2.35821" transform="rotate(90 43.1993 63.1194)" fill="#0B0B0B" stroke="#0B0B0B" stroke-width="2"/>
<circle cx="43.1993" cy="83.0398" r="2.35821" transform="rotate(90 43.1993 83.0398)" fill="#0B0B0B" stroke="#0B0B0B" stroke-width="2"/>
<circle cx="23.2788" cy="3.35821" r="2.35821" transform="rotate(90 23.2788 3.35821)" fill="#0B0B0B" stroke="#0B0B0B" stroke-width="2"/>
<circle cx="23.2788" cy="23.2786" r="2.35821" transform="rotate(90 23.2788 23.2786)" fill="#0B0B0B" stroke="#0B0B0B" stroke-width="2"/>
<circle cx="23.2788" cy="43.199" r="2.35821" transform="rotate(90 23.2788 43.199)" fill="#0B0B0B" stroke="#0B0B0B" stroke-width="2"/>
<circle cx="23.2788" cy="63.1194" r="2.35821" transform="rotate(90 23.2788 63.1194)" fill="#0B0B0B" stroke="#0B0B0B" stroke-width="2"/>
<circle cx="23.2788" cy="83.0398" r="2.35821" transform="rotate(90 23.2788 83.0398)" fill="#0B0B0B" stroke="#0B0B0B" stroke-width="2"/>
<circle cx="3.35841" cy="3.35821" r="2.35821" transform="rotate(90 3.35841 3.35821)" fill="#0B0B0B" stroke="#0B0B0B" stroke-width="2"/>
<circle cx="3.35841" cy="23.2786" r="2.35821" transform="rotate(90 3.35841 23.2786)" fill="#0B0B0B" stroke="#0B0B0B" stroke-width="2"/>
<circle cx="3.35847" cy="43.199" r="2.35821" transform="rotate(90 3.35847 43.199)" fill="#0B0B0B" stroke="#0B0B0B" stroke-width="2"/>
<circle cx="3.35847" cy="63.1194" r="2.35821" transform="rotate(90 3.35847 63.1194)" fill="#0B0B0B" stroke="#0B0B0B" stroke-width="2"/>
<circle cx="3.35847" cy="83.0398" r="2.35821" transform="rotate(90 3.35847 83.0398)" fill="#0B0B0B" stroke="#0B0B0B" stroke-width="2"/>
</svg>
