<svg width="80" height="80" viewBox="0 0 80 80" fill="none" xmlns="http://www.w3.org/2000/svg">
<path d="M71.4642 15.3026H73.936C74.7983 15.3026 75.4975 14.6034 75.4975 13.7411C75.4975 12.8789 74.7983 12.1797 73.936 12.1797H68.0024C67.1402 12.1797 66.4409 12.8789 66.4409 13.7411V19.6747C66.4409 20.537 67.1402 21.2362 68.0024 21.2362C68.8647 21.2362 69.5639 20.537 69.5639 19.6747V17.9567C74.3017 24.2995 76.877 31.9956 76.877 40C76.877 60.3342 60.3342 76.877 40 76.877C19.6658 76.877 3.12295 60.3342 3.12295 40C3.12295 19.6658 19.6658 3.12295 40 3.12295C41.5039 3.12295 43.0174 3.2143 44.4989 3.39434C45.3538 3.4977 46.1335 2.88889 46.2375 2.03273C46.3416 1.17673 45.732 0.398176 44.8759 0.294182C43.2697 0.0989975 41.6294 0 40 0C29.3156 0 19.2706 4.16071 11.7157 11.7157C4.16071 19.2706 0 29.3156 0 40C0 50.6844 4.16071 60.7294 11.7157 68.2842C19.2706 75.8393 29.3156 80 40 80C50.6844 80 60.7294 75.8393 68.2842 68.2842C75.8393 60.7294 80 50.6844 80 40C80 30.9839 76.9879 22.3283 71.4642 15.3026Z" fill="#222222"/>
<path d="M60.2993 41.5868H62.2249C63.0871 41.5868 63.7864 40.8876 63.7864 40.0253C63.7864 39.1631 63.0871 38.4639 62.2249 38.4639H60.2993C59.437 38.4639 58.7378 39.1631 58.7378 40.0253C58.7378 40.8876 59.4369 41.5868 60.2993 41.5868Z" fill="#222222"/>
<path d="M16.2136 39.9746C16.2136 40.8368 16.9128 41.536 17.775 41.536H19.7006C20.5629 41.536 21.2621 40.8368 21.2621 39.9746C21.2621 39.1123 20.5629 38.4131 19.7006 38.4131H17.775C16.9128 38.4131 16.2136 39.1122 16.2136 39.9746Z" fill="#222222"/>
<path d="M41.5867 19.7005V17.7749C41.5867 16.9126 40.8875 16.2134 40.0252 16.2134C39.163 16.2134 38.4637 16.9126 38.4637 17.7749V19.7005C38.4637 20.5627 39.163 21.2619 40.0252 21.2619C40.8875 21.2619 41.5867 20.5627 41.5867 19.7005Z" fill="#222222"/>
<path d="M38.4133 60.2993V62.2249C38.4133 63.0871 39.1125 63.7864 39.9747 63.7864C40.837 63.7864 41.5362 63.0871 41.5362 62.2249V60.2993C41.5362 59.437 40.837 58.7378 39.9747 58.7378C39.1125 58.7378 38.4133 59.4369 38.4133 60.2993Z" fill="#222222"/>
<path d="M32.1733 29.9651C31.5634 29.3555 30.575 29.3555 29.9649 29.9651C29.3552 30.5749 29.3552 31.5636 29.9649 32.1735L35.2569 37.4655C34.8514 38.2213 34.6208 39.0843 34.6208 40.0002C34.6208 42.9664 37.0339 45.3795 40.0001 45.3795C42.9663 45.3795 45.3794 42.9664 45.3794 40.0002C45.3794 39.0843 45.1486 38.2213 44.7432 37.4655L55.4211 26.7877C56.0308 26.1779 56.0308 25.1892 55.4211 24.5793C54.8111 23.9697 53.8227 23.9697 53.2127 24.5793L42.5348 35.2571C41.7791 34.8516 40.916 34.621 40.0001 34.621C39.0841 34.621 38.2211 34.8518 37.4653 35.2571L32.1733 29.9651ZM42.2564 40.0002C42.2564 41.2444 41.2443 42.2566 40.0001 42.2566C38.7559 42.2566 37.7437 41.2444 37.7437 40.0002C37.7437 38.7561 38.7559 37.7439 40.0001 37.7439C41.2443 37.7439 42.2564 38.7561 42.2564 40.0002Z" fill="#222222"/>
<path d="M50.8164 4.66543C51.2288 4.66543 51.6317 4.49976 51.922 4.20792C52.2124 3.91748 52.3796 3.51603 52.3796 3.10396C52.3796 2.69329 52.2125 2.29043 51.922 1.99999C51.6317 1.70971 51.2288 1.54248 50.8164 1.54248C50.4058 1.54248 50.0029 1.70956 49.7126 1.99999C49.4222 2.29043 49.2549 2.69329 49.2549 3.10396C49.2549 3.51619 49.422 3.91748 49.7126 4.20792C50.0029 4.49976 50.4058 4.66543 50.8164 4.66543Z" fill="#222222"/>
</svg>
