<svg width="79" height="79" viewBox="0 0 79 79" fill="none" xmlns="http://www.w3.org/2000/svg">
<path d="M24.8418 39.5C24.8418 38.6478 24.1509 37.957 23.2988 37.957C22.4468 37.957 21.7559 38.6478 21.7559 39.5V48.7578C21.7559 49.61 22.4468 50.3008 23.2988 50.3008H55.7012C56.5532 50.3008 57.2441 49.61 57.2441 48.7578V39.5C57.2441 38.6478 56.5532 37.957 55.7012 37.957C54.8491 37.957 54.1582 38.6478 54.1582 39.5V47.2148H24.8418V39.5Z" fill="#222222"/>
<path d="M77.457 66.6562H72.0566V30.2422C72.0566 29.39 71.3657 28.6992 70.5137 28.6992H47.9863V21.6016H53.3867C53.9712 21.6016 54.5054 21.2714 54.7668 20.7486C55.028 20.2259 54.9717 19.6003 54.6211 19.1328L40.7344 0.617188C40.4429 0.228668 39.9856 0 39.5 0C39.0144 0 38.5571 0.228668 38.2656 0.617188L24.3789 19.1328C24.0283 19.6003 23.9719 20.2259 24.2332 20.7486C24.4946 21.2714 25.0288 21.6016 25.6133 21.6016H31.0137V28.6992H8.48633C7.6343 28.6992 6.94336 29.39 6.94336 30.2422V66.6562H1.54297C0.690941 66.6562 0 67.347 0 68.1992C0 74.1548 4.84523 79 10.8008 79H32.5566C33.4087 79 34.0996 78.3091 34.0996 77.457C34.0996 76.605 33.4087 75.9141 32.5566 75.9141H10.8008C7.07513 75.9141 3.95771 73.2592 3.24101 69.7406H75.759C75.0423 73.2592 71.9249 75.9141 68.1992 75.9141H46.4434C45.5913 75.9141 44.9004 76.605 44.9004 77.457C44.9004 78.3091 45.5913 79 46.4434 79H68.1992C74.1548 79 79 74.1548 79 68.1992C79 67.347 78.3092 66.6562 77.457 66.6562ZM28.6992 18.5156L39.5 4.11463L50.3008 18.5156H46.4434C45.5913 18.5156 44.9004 19.2064 44.9004 20.0586V37.957H34.0996V20.0586C34.0996 19.2064 33.4087 18.5156 32.5566 18.5156H28.6992ZM68.9707 66.6562H10.0293V31.7852H31.0137V39.5C31.0137 40.3522 31.7046 41.043 32.5566 41.043H46.4434C47.2954 41.043 47.9863 40.3522 47.9863 39.5V31.7852H68.9707V66.6562Z" fill="#222222"/>
<path d="M39.5 79C40.3522 79 41.043 78.3092 41.043 77.457C41.043 76.6049 40.3522 75.9141 39.5 75.9141C38.6478 75.9141 37.957 76.6049 37.957 77.457C37.957 78.3092 38.6478 79 39.5 79Z" fill="#222222"/>
</svg>
