<svg width="75" height="90" viewBox="0 0 75 90" fill="none" xmlns="http://www.w3.org/2000/svg">
<path d="M18.5844 44.2777C14.295 38.1536 12.0277 30.9645 12.0277 23.4877L12.0277 6.81746C12.0277 5.99418 12.5997 5.28077 13.403 5.10155L36.1005 0.0417154C36.3525 -0.0139023 36.6135 -0.0139023 36.8655 0.0417153L59.5623 5.10155C60.3663 5.28076 60.9376 5.99418 60.9376 6.81746L60.9376 23.4877C60.9376 30.9645 58.6703 38.1536 54.3809 44.277C50.0915 50.4011 44.1102 54.9886 37.0831 57.5442C36.8895 57.6143 36.6856 57.65 36.483 57.65C36.2798 57.65 36.0758 57.6143 35.8822 57.5442C28.8551 54.9892 22.8738 50.4011 18.5844 44.2777ZM36.483 54.0149C42.568 51.6687 47.7514 47.6148 51.5012 42.2604C55.3745 36.7309 57.422 30.2394 57.422 23.4877L57.422 8.22644L36.483 3.55868L15.5433 8.22644L15.5433 23.4877C15.5433 30.2387 17.5908 36.7302 21.4642 42.2604C25.2146 47.6148 30.398 51.6687 36.483 54.0149Z" fill="#222222"/>
<path d="M33.9827 35.0854C34.3551 35.5142 34.8694 35.7615 35.4096 35.7709C35.454 35.7719 35.4984 35.7711 35.5426 35.7687C36.0333 35.7418 36.4984 35.5179 36.845 35.137L46.9392 23.9004C47.7089 23.0546 47.6968 21.6829 46.9122 20.8368C46.1268 19.9915 44.8661 19.992 44.0963 20.8378L35.4439 30.489L33.4752 28.2223L31.5065 25.9556C30.7484 25.0826 29.4875 25.0364 28.692 25.8539C27.8959 26.6715 27.8659 28.0421 28.624 28.916L33.9827 35.0854Z" fill="#222222"/>
<path d="M50.7789 56.7414C51.7052 55.5233 53.0517 54.7487 54.5699 54.5592C56.088 54.3704 57.5835 54.7899 58.781 55.7423C59.3413 56.1879 59.7938 56.7221 60.1351 57.3106L60.6514 56.6377C61.1101 56.041 61.3621 55.298 61.3621 54.5455L61.3621 38.6876C61.3621 35.448 63.9981 32.812 67.2376 32.812C70.2849 32.812 72.7994 35.0999 73.0871 38.1328L74.9685 57.9746C75.134 59.7124 74.6437 61.4366 73.5829 62.8373L58.6416 82.2925L58.6416 86.8079C58.6416 87.7788 57.8547 88.5657 56.8838 88.5657C55.9136 88.5657 55.126 87.7788 55.126 86.8079L55.126 81.6952C55.126 81.3079 55.2544 80.9316 55.49 80.6247L70.7876 60.7053C71.3087 60.0173 71.5504 59.1652 71.4687 58.3062L69.5866 38.4651C69.4713 37.2463 68.4612 36.3276 67.2376 36.3276C65.9358 36.3276 64.8777 37.3864 64.8777 38.6876L64.8777 54.5455C64.8777 56.0684 64.3668 57.5715 63.4392 58.7786L59.7595 63.5707C59.754 63.5782 59.7485 63.5858 59.743 63.5933L56.774 67.4598C56.1821 68.2295 55.0787 68.3744 54.3089 67.7832C53.5392 67.192 53.3943 66.0886 53.9855 65.3182L56.9642 61.4393C57.6542 60.5261 57.4894 59.2078 56.5913 58.4937C56.1402 58.1345 55.5765 57.9766 55.0045 58.0473C54.4325 58.1188 53.9251 58.4113 53.5763 58.8699L46.4799 68.1959C45.0833 70.0312 44.3142 72.3123 44.3142 74.6187L44.3142 86.8079C44.3142 87.7788 43.5273 88.5657 42.5564 88.5657C41.5855 88.5657 40.7986 87.7788 40.7986 86.8079L40.7986 74.6187C40.7986 71.548 41.8224 68.511 43.6818 66.0673L50.7789 56.7414Z" fill="#222222"/>
<path d="M0.0313399 58.4165L1.91341 38.5747C2.20111 35.5418 4.71627 33.2539 7.76289 33.2539C11.0024 33.2539 13.6385 35.8899 13.6385 39.1295L13.6385 54.9874C13.6385 55.7399 13.8911 56.4829 14.3491 57.0796L14.8662 57.7525C15.2067 57.1647 15.6592 56.6305 16.2195 56.1842C17.417 55.2318 18.9125 54.8123 20.4307 55.0011C21.9488 55.1906 23.2953 55.9652 24.2216 57.1832L31.318 66.5092C33.1774 68.9529 34.2019 71.9899 34.2019 75.0612L34.2019 87.2498C34.2019 88.2207 33.4143 89.0076 32.4441 89.0076C31.4732 89.0076 30.6863 88.2207 30.6863 87.2498L30.6863 75.0606C30.6863 72.7541 29.9173 70.4731 28.5207 68.6377L21.4243 59.3118C21.0748 58.8532 20.5673 58.5613 19.9954 58.4892C19.4234 58.4185 18.8597 58.5764 18.4085 58.9356C17.5111 59.6497 17.3456 60.968 18.0364 61.8812L21.0143 65.76C21.6055 66.5305 21.4606 67.6339 20.6909 68.2251C19.9212 68.8163 18.8178 68.6714 18.2259 67.9017L15.2576 64.0352C15.2521 64.0283 15.2473 64.0215 15.2418 64.0146L11.5607 59.2212C10.6337 58.0134 10.1229 56.5103 10.1229 54.9874L10.1229 39.1295C10.1229 37.8283 9.06407 36.7695 7.76289 36.7695C6.5393 36.7695 5.52925 37.6882 5.41321 38.907L3.53114 58.7481C3.45011 59.6078 3.69181 60.4592 4.2061 61.1383L19.5106 81.0666C19.7461 81.3735 19.8738 81.7505 19.8738 82.1377L19.8738 87.2498C19.8738 88.2207 19.0869 89.0076 18.116 89.0076C17.1451 89.0076 16.3582 88.2207 16.3582 87.2498L16.3582 82.7344L1.4108 63.2703C0.356806 61.8785 -0.133451 60.1543 0.0313399 58.4165Z" fill="#222222"/>
</svg>
