<svg width="82" height="86" viewBox="0 0 82 86" fill="none" xmlns="http://www.w3.org/2000/svg">
<path d="M44.2281 15.8299L43.7078 15.7545L43.475 15.2831L41.0527 10.3788L41.0527 10.3787C40.9382 10.1468 40.7022 10.0001 40.4436 10L44.2281 15.8299ZM44.2281 15.8299L49.641 16.615C49.6411 16.615 49.6412 16.615 49.6412 16.615C49.8974 16.6523 50.1101 16.8317 50.19 17.0775C50.27 17.3237 50.2034 17.5938 50.0183 17.7744C50.0183 17.7744 50.0183 17.7744 50.0183 17.7744L46.1024 21.5933L45.7261 21.9604L45.8151 22.4785L46.7411 27.8693C46.7848 28.1243 46.6801 28.382 46.4708 28.5341L46.4705 28.5343C46.2616 28.6863 45.9842 28.7065 45.7551 28.5861L45.755 28.5861L40.913 26.042L40.4476 25.7975L39.9823 26.0422L35.1414 28.5888L35.1412 28.5889M44.2281 15.8299L35.1412 28.5889M37.1817 15.7563L36.6614 15.8321L31.2488 16.62L31.2487 16.62C30.9927 16.6572 30.78 16.8367 30.7002 17.0827C30.6203 17.3287 30.6871 17.5989 30.8723 17.7794C30.8723 17.7794 30.8723 17.7794 30.8723 17.7794L34.7905 21.5963L35.1671 21.9632L35.0784 22.4814L34.1552 27.8725L34.1552 27.8727C34.1115 28.1276 34.2163 28.3852 34.4257 28.5373L37.1817 15.7563ZM37.1817 15.7563L37.4142 15.2848M37.1817 15.7563L37.4142 15.2848M37.4142 15.2848L39.8336 10.3791M37.4142 15.2848L39.8336 10.3791M35.1412 28.5889C35.0418 28.6412 34.9336 28.667 34.8252 28.667C34.6837 28.667 34.544 28.6232 34.4257 28.5374L35.1412 28.5889ZM39.8336 10.3791C39.948 10.1473 40.1844 10.0002 40.4433 10L39.8336 10.3791Z" stroke="black" stroke-width="2"/>
<path d="M67.4051 49.0664L59.9601 28.0479C59.9342 27.9748 59.9023 27.9058 59.8677 27.8387C62.6702 20.5121 61.1232 11.8892 55.2262 5.99513C52.0457 2.81613 48.0157 0.809569 43.5726 0.192616C39.2754 -0.403844 34.8172 0.395523 31.0179 2.44375C30.2014 2.88399 29.8963 3.9029 30.3366 4.7194C30.7765 5.53607 31.7954 5.84076 32.6124 5.40085C39.2161 1.84006 47.5389 3.06171 52.8512 8.37139C59.5332 15.0499 59.5363 25.9197 52.8578 32.6018C46.1793 39.284 35.3093 39.2869 28.6273 32.6084C23.3148 27.2987 22.0889 18.9765 25.6462 12.3708C26.0859 11.5541 25.7804 10.5353 24.9637 10.0953C24.1472 9.65552 23.1282 9.96106 22.6884 10.7777C20.6419 14.5782 19.8445 19.0373 20.4435 23.3338C20.6995 25.1704 21.1965 26.9346 21.9121 28.5988L13.4383 46.6277C13.1783 47.1806 13.2391 47.8313 13.5972 48.3265C13.9555 48.8217 14.5545 49.0834 15.1609 49.0096L25.8647 47.7104L31.7499 56.7453C32.0613 57.2233 32.5919 57.5082 33.157 57.5082C33.1963 57.5082 33.2361 57.5069 33.2756 57.504C33.8843 57.461 34.4218 57.0913 34.6796 56.5384L40.5772 43.8908L45.3739 57.0696C45.5825 57.6429 46.0858 58.0582 46.6883 58.1541C46.7765 58.168 46.8648 58.1749 46.9523 58.1749C47.4636 58.1749 47.9531 57.9411 48.2742 57.5311L54.9243 49.0436L65.4745 51.2705C66.0694 51.3965 66.6849 51.1907 67.0852 50.7337C67.4859 50.2768 67.608 49.6392 67.4051 49.0664ZM32.9136 52.3767L28.1086 45C27.7591 44.4634 27.1332 44.1726 26.4988 44.2494L17.7703 45.3089L23.9264 32.2108C24.6134 33.1916 25.3879 34.1201 26.2524 34.9843C29.5402 38.2705 33.7475 40.3014 38.2938 40.8384L32.9136 52.3767ZM54.5948 45.5404C53.9686 45.4079 53.3207 45.6437 52.9257 46.1479L47.496 53.0775L43.0469 40.8534C47.6497 40.3409 51.9123 38.3001 55.2342 34.9764C56.192 34.0182 57.0335 32.9873 57.7617 31.9021L63.2387 47.3649L54.5948 45.5404Z" fill="#222222"/>
<path d="M28.6222 6.00355L28.6101 5.99145C27.954 5.33553 26.8908 5.33553 26.2345 5.99145C25.5786 6.64737 25.5786 7.71096 26.2345 8.36705L26.2468 8.37914C26.5748 8.70719 27.0046 8.87112 27.4345 8.87112C27.8643 8.87112 28.2941 8.70719 28.6222 8.37914C29.2781 7.72322 29.2781 6.65964 28.6222 6.00355Z" fill="#222222"/>
<path d="M66.122 75.0815C65.808 74.7691 65.3763 74.5894 64.9346 74.5894C64.491 74.5894 64.0595 74.7691 63.747 75.0815C63.4329 75.3939 63.2549 75.8273 63.2549 76.2691C63.2549 76.7125 63.4329 77.1442 63.747 77.4566C64.0595 77.7707 64.4911 77.9487 64.9346 77.9487C65.3763 77.9487 65.808 77.7707 66.122 77.4566C66.4344 77.1442 66.6143 76.7125 66.6143 76.2691C66.6143 75.8275 66.4345 75.3956 66.122 75.0815Z" fill="#222222"/>
<path d="M80.9157 62.8935C80.1565 61.1014 78.7371 59.7313 76.9192 59.0359C75.1012 58.3406 73.13 58.4135 71.3685 59.2416L47.7538 70.3424C47.5005 68.6714 46.5619 67.1701 45.0849 66.1914L33.8282 58.7317C33.5529 58.5494 33.2303 58.4522 32.9004 58.4522H17.2911V56.7725C17.2911 55.8448 16.539 55.0928 15.6114 55.0928H1.6797C0.752168 55.0928 0 55.8448 0 56.7725C0 57.7002 0.752168 58.4522 1.6797 58.4522H13.9316V82.6406H1.6797C0.752168 82.6406 0 83.3926 0 84.3203C0 85.248 0.752168 86 1.6797 86H15.6113C16.5388 86 17.291 85.248 17.291 84.3203V84.2093L22.9 85.9265C23.0594 85.9753 23.2252 86 23.3918 86H41.9284C46.3941 86 50.8772 84.9684 54.8935 83.0165L59.7209 80.6707C60.5552 80.2652 60.9029 79.2602 60.4975 78.4258C60.0921 77.5911 59.087 77.2436 58.2525 77.6491L53.4251 79.9949C49.8638 81.7255 45.8883 82.6405 41.9287 82.6405H23.6432L17.2913 80.696V61.8121H32.3945L43.2293 68.9923C44.1569 69.607 44.6053 70.63 44.4288 71.729C44.2521 72.8277 43.5056 73.6586 42.432 73.9516C41.6825 74.1563 40.8768 74.0337 40.2217 73.6153L32.6441 68.7756C31.862 68.2764 30.8234 68.5053 30.3241 69.287C29.8247 70.0689 30.0538 71.1075 30.8355 71.607L38.4131 76.4468C39.4048 77.0802 40.5519 77.4077 41.7094 77.4077C42.2477 77.4077 42.7884 77.3368 43.3163 77.1927C45.0938 76.7076 46.4974 75.5049 47.2418 73.9065H47.6946C47.9417 73.9065 48.1856 73.8521 48.4092 73.747L72.7974 62.2825C73.7246 61.8467 74.7618 61.8082 75.7189 62.1742C76.6756 62.5402 77.4226 63.2611 77.822 64.2043C78.5974 66.0343 77.8044 68.1484 76.0167 69.0171L69.868 72.0053C69.0337 72.4108 68.686 73.4157 69.0915 74.2502C69.3819 74.8482 69.9805 75.1962 70.6033 75.1962C70.8498 75.1962 71.1 75.1418 71.3364 75.0269L77.4851 72.0387C80.8819 70.3878 82.3888 66.3709 80.9157 62.8935Z" fill="#222222"/>
<path d="M11.3216 66.3193C10.695 65.6352 9.63279 65.5883 8.94814 66.2148L8.93353 66.2283C8.24956 66.8548 8.2027 67.9172 8.82922 68.6013C9.16063 68.9632 9.61381 69.1467 10.0685 69.1467C10.4736 69.1467 10.88 69.0009 11.2025 68.7058L11.2171 68.6924C11.9012 68.0659 11.9481 67.0034 11.3216 66.3193Z" fill="#222222"/>
</svg>
