<svg width="20" height="16" viewBox="0 0 20 16" fill="none" xmlns="http://www.w3.org/2000/svg">
<path d="M1.91961 4.84373C2.1726 5.02226 2.93523 5.55249 4.20753 6.43415C5.47986 7.3158 6.45456 7.99466 7.13165 8.47075C7.20604 8.52293 7.36409 8.63638 7.60587 8.81123C7.84769 8.9862 8.04861 9.1276 8.2085 9.23545C8.36849 9.34326 8.56192 9.46421 8.78896 9.59809C9.01592 9.73186 9.22987 9.83248 9.43076 9.8991C9.63168 9.96625 9.81768 9.99952 9.98878 9.99952H10H10.0113C10.1824 9.99952 10.3684 9.96621 10.5694 9.8991C10.7702 9.83248 10.9843 9.73175 11.2111 9.59809C11.438 9.46405 11.6314 9.34322 11.7914 9.23545C11.9514 9.1276 12.1522 8.9862 12.3941 8.81123C12.6358 8.63622 12.794 8.52293 12.8684 8.47075C13.5528 7.99466 15.2941 6.78554 18.0916 4.84349C18.6347 4.46419 19.0885 4.00652 19.453 3.47077C19.8178 2.93527 20 2.37349 20 1.78576C20 1.29462 19.8232 0.874192 19.4697 0.524523C19.1163 0.174776 18.6977 0 18.2142 0H1.78564C1.21276 0 0.771892 0.193422 0.463112 0.580267C0.154371 0.96719 0 1.45082 0 2.03113C0 2.49987 0.204681 3.00782 0.613847 3.55466C1.02297 4.10155 1.45837 4.53127 1.91961 4.84373Z" fill="#FEED00"/>
<path d="M18.8838 6.03808C16.4435 7.68972 14.5906 8.97331 13.3259 9.88859C12.9018 10.201 12.5578 10.4448 12.2936 10.6196C12.0293 10.7944 11.678 10.973 11.2389 11.1552C10.8 11.3377 10.3909 11.4286 10.0114 11.4286H10H9.9888C9.60934 11.4286 9.20006 11.3377 8.76115 11.1552C8.32223 10.973 7.97061 10.7944 7.70647 10.6196C7.44241 10.4448 7.09826 10.201 6.6742 9.88859C5.66968 9.15204 3.82075 7.86836 1.12734 6.03808C0.703129 5.75553 0.327387 5.43166 0 5.06714V13.9285C0 14.4199 0.174776 14.8401 0.524523 15.1898C0.874192 15.5396 1.29465 15.7144 1.78575 15.7144H18.2144C18.7053 15.7144 19.1258 15.5396 19.4755 15.1898C19.8253 14.8399 20 14.4199 20 13.9285V5.06714C19.68 5.42412 19.3081 5.74799 18.8838 6.03808Z" fill="#FEED00"/>
</svg>
