<svg width="17" height="17" viewBox="0 0 17 17" fill="none" xmlns="http://www.w3.org/2000/svg">
<path d="M16.9625 13.1719C16.9144 13.027 16.6085 12.8136 16.0449 12.5321C15.8923 12.4434 15.6747 12.3228 15.3933 12.1699C15.1115 12.0169 14.8558 11.876 14.6266 11.7471C14.3968 11.6184 14.1816 11.4936 13.9806 11.3731C13.9484 11.3489 13.8478 11.2786 13.6788 11.1616C13.5096 11.045 13.3669 10.9584 13.25 10.902C13.1333 10.8458 13.0185 10.8176 12.9058 10.8176C12.7449 10.8176 12.5438 10.9324 12.3025 11.1616C12.0611 11.3912 11.8396 11.6405 11.6385 11.9104C11.4374 12.1801 11.224 12.4295 10.9989 12.6589C10.7734 12.8884 10.5881 13.003 10.4434 13.003C10.3707 13.003 10.2802 12.9828 10.1716 12.9428C10.0631 12.9026 9.98055 12.8681 9.92388 12.8404C9.86772 12.812 9.77134 12.7558 9.63441 12.671C9.49723 12.5865 9.42094 12.5402 9.40487 12.5321C8.30219 11.9202 7.35649 11.2199 6.56759 10.4314C5.77894 9.64235 5.07856 8.69673 4.46685 7.59392C4.45882 7.57781 4.41243 7.50131 4.32797 7.36455C4.2434 7.22766 4.18703 7.1312 4.15886 7.0747C4.1307 7.01841 4.09649 6.93587 4.05631 6.82723C4.01614 6.71859 3.99597 6.62809 3.99597 6.55556C3.99597 6.41077 4.11069 6.22554 4.34011 6.00014C4.56949 5.77487 4.81907 5.56148 5.08862 5.3604C5.35838 5.15931 5.60772 4.93789 5.83718 4.69651C6.06655 4.45499 6.18124 4.25387 6.18124 4.09292C6.18124 3.9803 6.15307 3.86549 6.09679 3.74881C6.04046 3.63189 5.95394 3.4892 5.83718 3.32009C5.72037 3.15106 5.64996 3.05054 5.62577 3.01819C5.50517 2.81711 5.38054 2.60182 5.2516 2.3724C5.12266 2.14303 4.98193 1.88735 4.82893 1.60566C4.67605 1.3241 4.5554 1.1067 4.46677 0.953781C4.18521 0.390452 3.97195 0.0844507 3.82702 0.0363261C3.77065 0.0121792 3.68607 0 3.5735 0C3.35605 0 3.07238 0.0401743 2.72227 0.120777C2.37203 0.201252 2.09644 0.285661 1.89519 0.37434C1.49272 0.543284 1.06616 1.03426 0.615358 1.84709C0.204861 2.60355 -0.000366211 3.35227 -0.000366211 4.09271C-0.000366211 4.30986 0.0137159 4.52113 0.0418803 4.72657C0.0700446 4.9318 0.120368 5.16325 0.192893 5.42087C0.265292 5.67841 0.323693 5.86972 0.367842 5.99431C0.412034 6.11897 0.494539 6.3423 0.615316 6.66437C0.735924 6.98636 0.808449 7.18347 0.832596 7.25591C1.11428 8.04476 1.44832 8.749 1.83463 9.36882C2.47023 10.3991 3.33761 11.4638 4.43628 12.5625C5.53498 13.6612 6.59947 14.5285 7.6298 15.1644C8.24954 15.5506 8.95403 15.8846 9.74276 16.1665C9.81524 16.1906 10.0123 16.2629 10.3342 16.3839C10.6562 16.5046 10.8796 16.5871 11.0043 16.6314C11.129 16.6757 11.3203 16.7342 11.5777 16.8067C11.8355 16.8792 12.0668 16.9295 12.272 16.9579C12.4774 16.9857 12.6887 17 12.9059 17C13.6463 17 14.395 16.7947 15.1516 16.3842C15.9644 15.9336 16.4552 15.507 16.6242 15.1042C16.7131 14.9032 16.7973 14.6275 16.8778 14.2772C16.9585 13.9272 16.9986 13.6435 16.9986 13.4261C16.9989 13.3131 16.9867 13.2287 16.9625 13.1719Z" fill="#FEED00"/>
</svg>
