<svg width="66" height="66" viewBox="0 0 66 66" fill="none" xmlns="http://www.w3.org/2000/svg">
<rect width="66" height="66" fill="#FEED00"/>
<path d="M43.0976 35.8908C38.7526 35.8908 35.2302 32.5573 35.2302 28.4454C35.2302 24.3334 38.7526 20.9999 43.0976 20.9999C47.4426 20.9999 50.9649 24.3334 50.9649 28.4454L51 29.509C51 37.733 43.9554 44.3999 35.2654 44.3999L35.2654 40.1454C38.2674 40.1454 41.0898 39.039 43.2125 37.03C43.6212 36.6433 43.9941 36.2318 44.3305 35.7995C43.9288 35.8594 43.5171 35.8908 43.0976 35.8908ZM22.8673 35.8908C18.5224 35.8908 15 32.5573 15 28.4454C15 24.3334 18.5224 20.9999 22.8673 20.9999C27.2123 20.9999 30.7346 24.3334 30.7346 28.4454L30.7698 29.509C30.7698 37.733 23.7252 44.3999 15.0351 44.3999L15.0351 40.1454C18.0371 40.1454 20.8596 39.039 22.9823 37.03C23.391 36.6433 23.7639 36.2318 24.1003 35.7995C23.6986 35.8594 23.2869 35.8908 22.8673 35.8908Z" stroke="black"/>
</svg>
