<svg width="210" height="30" viewBox="0 0 210 30" fill="none" xmlns="http://www.w3.org/2000/svg">
<path d="M18.7304 15.528H16.29C16.29 19.4269 16.29 24.2261 16.29 24.2261H12.6739C12.6739 24.2261 12.6739 19.4734 12.6739 15.528H10.9549V12.4538H12.6739V10.4653C12.6739 9.04121 13.3506 6.81592 16.3233 6.81592L19.0029 6.82619V9.81036C19.0029 9.81036 17.3746 9.81036 17.058 9.81036C16.7414 9.81036 16.2912 9.96866 16.2912 10.6478V12.4544H19.0464L18.7304 15.528Z" fill="white"/>
<path fill-rule="evenodd" clip-rule="evenodd" d="M77.6878 7.01575H76.6686V11.4763C76.6686 11.8744 76.7026 12.1441 76.7591 12.3151C76.8616 12.6005 77.0887 12.734 77.4177 12.734C77.7906 12.734 78.1785 12.5078 78.5855 12.0413V12.6564H79.6075V7.01575H78.5855V11.3272C78.3587 11.6473 78.1442 11.8056 77.9398 11.8056C77.8029 11.8056 77.7225 11.7246 77.7001 11.5662C77.6878 11.5328 77.6878 11.4085 77.6878 11.1689V11.1688V7.01575ZM73.1281 7.52614C72.9108 7.81125 72.8083 8.25197 72.8083 8.85504V10.8303C72.8083 11.4297 72.9108 11.8747 73.1281 12.1567C73.4108 12.5416 73.8088 12.734 74.3183 12.734C74.8302 12.734 75.2279 12.5416 75.5106 12.1567C75.7248 11.8747 75.8273 11.43 75.8273 10.8303V8.85504C75.8273 8.25197 75.7248 7.81094 75.5106 7.52614C75.2279 7.14036 74.8302 6.94762 74.3183 6.94762C73.8088 6.94762 73.4108 7.14036 73.1281 7.52614ZM70.8797 8.05954L70.075 5.08716H68.8827C69.0007 5.43407 69.1212 5.78165 69.2417 6.12932L69.2417 6.12934L69.2417 6.12936L69.2417 6.12941C69.365 6.48514 69.4884 6.84095 69.6091 7.19621C69.9728 8.25197 70.1996 9.04777 70.3024 9.59099V12.6567H71.4355V9.59099L72.7991 5.08716H71.6528L70.8797 8.05954ZM81.2663 24.6809C82.1425 24.583 82.8702 23.9262 83.0752 23.0365C83.3671 21.7693 83.3683 20.3855 83.3683 19.0805V19.056C83.3683 17.7583 83.3683 16.3841 83.0792 15.1245C82.8739 14.2345 82.1459 13.578 81.2697 13.4801C79.1944 13.2484 77.0939 13.2472 75.003 13.2484C72.9114 13.2472 70.811 13.2484 68.7357 13.4801C67.8595 13.5777 67.1321 14.2345 66.9274 15.1245C66.6358 16.392 66.6321 17.7755 66.6321 19.0805C66.6321 20.3855 66.6321 21.7693 66.924 23.0365C67.1284 23.9265 67.8564 24.583 68.7326 24.6809C70.8076 24.9126 72.9084 24.9139 74.9993 24.9126C77.0912 24.9139 79.1907 24.9126 81.2663 24.6809ZM79.4036 17.4659C79.6957 17.0838 80.0975 16.8938 80.6149 16.8938C81.1225 16.8938 81.5249 17.0841 81.8075 17.4653C82.0196 17.7476 82.1206 18.184 82.1206 18.7803V19.9365H80.0975V20.9265C80.0975 21.4428 80.2675 21.7006 80.6149 21.7006C80.8638 21.7006 81.0093 21.5655 81.067 21.2951C81.0759 21.2402 81.0891 21.0152 81.0891 20.6101H82.1206V20.7571C82.1206 21.0834 82.1086 21.3077 82.0991 21.409C82.0653 21.633 81.9856 21.8359 81.8628 22.0151C81.5829 22.4206 81.1683 22.6203 80.6401 22.6203C80.111 22.6203 79.708 22.4298 79.4161 22.0486C79.2007 21.769 79.0911 21.3295 79.0911 20.7363V18.781C79.0911 18.1846 79.189 17.7482 79.4036 17.4659ZM80.0981 19.0949H81.1096V18.5784C81.1096 18.0625 80.9402 17.8041 80.6057 17.8041C80.2678 17.8041 80.0981 18.0622 80.0981 18.5784V19.0949ZM73.4503 21.2276C73.2259 21.5446 73.0138 21.7008 72.8107 21.7008C72.6756 21.7008 72.5986 21.6214 72.5741 21.4642C72.5648 21.4317 72.5648 21.3083 72.5648 21.0714V16.9619H71.5533V21.3749C71.5533 21.7693 71.5873 22.0357 71.6426 22.2051C71.7442 22.4881 71.9688 22.6206 72.2942 22.6206C72.6664 22.6206 73.0482 22.396 73.4503 21.935V22.5439H74.4624V16.9619H73.4503V21.2276ZM76.3485 17.4991C76.6747 17.0971 77.0218 16.8939 77.3938 16.8939C77.7958 16.8939 78.0671 17.1057 78.2019 17.5243C78.2697 17.7487 78.3044 18.1176 78.3044 18.646V20.8687C78.3044 21.3852 78.2697 21.7568 78.2019 21.9935C78.0668 22.409 77.7961 22.6208 77.3938 22.6208C77.0338 22.6208 76.687 22.4207 76.3485 22.003V22.5437H75.3372V15.0525H76.3485V17.4991ZM76.8524 21.701C77.1446 21.701 77.2925 21.4524 77.2925 20.9478V18.5656C77.2925 18.0623 77.1443 17.8039 76.8524 17.8039C76.6864 17.8039 76.5173 17.8831 76.3482 18.0503V21.4521C76.5173 21.6215 76.6864 21.701 76.8524 21.701ZM67.8802 16.1067H69.0694V22.5434H70.1946V16.1067H71.4059V15.0525H67.8802V16.1067ZM74.806 11.0224C74.806 11.5441 74.6479 11.8053 74.3186 11.8053C73.989 11.8053 73.8306 11.5444 73.8306 11.0224V8.64967C73.8306 8.12793 73.989 7.86768 74.3186 7.86768C74.6479 7.86768 74.806 8.12763 74.806 8.64967V11.0224Z" fill="white"/>
<path d="M131.25 22.2655H127.5V9.14049H131.25V22.2655ZM129.491 8.33614C128.52 8.33614 127.734 7.54862 127.734 6.57737C127.734 5.60612 128.522 4.8186 129.491 4.8186C130.462 4.82045 131.25 5.60797 131.25 6.57737C131.25 7.54862 130.462 8.33614 129.491 8.33614ZM144.375 22.2655H140.625V14.1505C140.625 13.1999 140.353 12.5343 139.185 12.5343C137.248 12.5343 136.875 14.1505 136.875 14.1505V22.2655H133.125V9.14049H136.875V10.3948C137.411 9.98425 138.75 9.14234 140.625 9.14234C141.84 9.14234 144.375 9.86984 144.375 14.2648V22.2655Z" fill="white"/>
</svg>
